<?xml version="1.0" encoding="UTF-8"?>
<svg width="178px" height="64px" viewBox="0 0 178 64" version="1.1" xmlns="http://www.w3.org/2000/svg" xmlns:xlink="http://www.w3.org/1999/xlink">
    <!-- Generator: Sketch 51.3 (57544) - http://www.bohemiancoding.com/sketch -->
    <title>Group 7</title>
    <desc>Created with Sketch.</desc>
    <defs></defs>
    <g id="Page-1" stroke="none" stroke-width="1" fill="none" fill-rule="evenodd">
        <g id="Style-1-Copy-5" transform="translate(-241.000000, -837.000000)" fill-rule="nonzero">
            <g id="Group-7" transform="translate(241.000000, 837.000000)">
                <polygon id="Triangle-Copy-125" fill="#29C1CD" opacity="0.390904018" points="32 0 64 32 32 32"></polygon>
                <polygon id="Triangle-Copy-126" fill="#29C1CD" opacity="0.689341518" transform="translate(16.000000, 48.000000) scale(-1, -1) translate(-16.000000, -48.000000) " points="0 32 32 64 0 64"></polygon>
                <polygon id="Triangle-Copy-112" fill="#29C1CD" transform="translate(16.000000, 16.000000) scale(-1, 1) translate(-16.000000, -16.000000) " points="0 0 32 32 0 32"></polygon>
                <polygon id="Triangle-Copy-100" fill="#29C1CD" transform="translate(130.000000, 16.000000) scale(-1, 1) translate(-130.000000, -16.000000) " points="114 0 146 32 114 32"></polygon>
                <polygon id="Triangle-Copy-101" fill="#29C1CD" transform="translate(98.000000, 48.000000) scale(-1, 1) translate(-98.000000, -48.000000) " points="82 32 114 64 82 64"></polygon>
                <polygon id="Triangle-Copy-102" fill="#29C1CD" opacity="0.428404018" transform="translate(130.000000, 16.000000) scale(-1, 1) translate(-130.000000, -16.000000) " points="146 32 114 -1.42108547e-14 146 -1.42108547e-14"></polygon>
                <polygon id="Triangle-Copy-105" fill="#29C1CD" opacity="0.428404018" transform="translate(155.000000, 41.000000) scale(-1, 1) translate(-155.000000, -41.000000) " points="164 50 146 32 164 32"></polygon>
                <polygon id="Triangle-Copy-103" fill="#29C1CD" opacity="0.428404018" points="178 32 146 -1.42108547e-14 178 -1.42108547e-14"></polygon>
                <polygon id="Triangle-Copy-111" fill="#29C1CD" points="32 64 32 32 64 32"></polygon>
                <polygon id="Triangle-Copy-106" fill="#B3EFF3" opacity="0.428404018" transform="translate(41.000000, 41.000000) scale(-1, 1) translate(-41.000000, -41.000000) " points="50 50 32 32 50 32"></polygon>
                <polygon id="Triangle-Copy-108" fill="#B3EFF3" opacity="0.790625" transform="translate(139.000000, 57.000000) scale(1, -1) translate(-139.000000, -57.000000) " points="146 64 132 50 146 50"></polygon>
                <polygon id="Triangle-Copy-109" fill="#B3EFF3" opacity="0.300892857" transform="translate(25.000000, 7.000000) scale(1, -1) translate(-25.000000, -7.000000) " points="32 14 18 0 32 0"></polygon>
            </g>
        </g>
    </g>
</svg>