<?xml version="1.0" encoding="UTF-8"?>
<svg width="72px" height="72px" viewBox="0 0 72 72" version="1.1" xmlns="http://www.w3.org/2000/svg" xmlns:xlink="http://www.w3.org/1999/xlink">
    <!-- Generator: Sketch 52.2 (67145) - http://www.bohemiancoding.com/sketch -->
    <title>Group 7</title>
    <desc>Created with Sketch.</desc>
    <g id="Page-1" stroke="none" stroke-width="1" fill="none" fill-rule="evenodd">
        <g id="Style-1-Copy-5" transform="translate(-880.000000, -997.000000)" fill-rule="nonzero">
            <g id="Group-7" transform="translate(880.000000, 997.000000)">
                <g id="Group-4">
                    <polygon id="Triangle-Copy-132" fill="#C927A5" opacity="0.830301339" transform="translate(18.000000, 54.000000) scale(-1, 1) translate(-18.000000, -54.000000) " points="-1.26750944e-14 72 -3.90002904e-15 36 36 36"></polygon>
                    <polygon id="Triangle-Copy-133" fill="#C927A5" points="36 72 36 36 72 36"></polygon>
                    <polygon id="Triangle-Copy-134" fill="#C927A5" opacity="0.772823661" transform="translate(54.000000, 18.000000) scale(-1, -1) translate(-54.000000, -18.000000) " points="36 36 36 -1.42108547e-14 72 -5.35080135e-15"></polygon>
                    <polygon id="Triangle-Copy-135" fill="#C927A5" transform="translate(18.000000, 18.000000) scale(1, -1) translate(-18.000000, -18.000000) " points="-1.26750944e-14 36 -3.90002904e-15 -1.42108547e-14 36 -5.35080135e-15"></polygon>
                    <polygon id="Triangle-Copy-138" fill="#C927A5" opacity="0.823214286" transform="translate(18.000000, 18.000000) scale(-1, 1) translate(-18.000000, -18.000000) " points="-1.26750944e-14 36 -3.90002904e-15 -1.42108547e-14 36 -5.35080135e-15"></polygon>
                    <polygon id="Triangle-Copy-139" fill="#EEBAE2" points="36 14 22 0 36 0"></polygon>
                    <polygon id="Triangle-Copy-142" fill="#FFFFFF" transform="translate(7.000000, 7.000000) scale(-1, 1) rotate(-270.000000) translate(-7.000000, -7.000000) " points="0 14 3.41252541e-15 0 14 3.44557631e-15"></polygon>
                    <polygon id="Triangle-Copy-146" fill="#C927A5" opacity="0.823214286" points="36 36 36 -1.42108547e-14 72 -5.35080135e-15"></polygon>
                    <polygon id="Triangle-Copy-147" fill="#EEBAE2" points="36 14 36 0 50 3.44557631e-15"></polygon>
                    <polygon id="Triangle-Copy-149" fill="#EEBAE2" opacity="0.726339286" points="36 47 36 36 47 36"></polygon>
                    <polygon id="Triangle-Copy-148" fill="#FFFFFF" transform="translate(65.000000, 7.000000) rotate(-270.000000) translate(-65.000000, -7.000000) " points="58 14 58 0 72 3.44557631e-15"></polygon>
                </g>
            </g>
        </g>
    </g>
</svg>