<?xml version="1.0" encoding="UTF-8"?>
<svg width="80px" height="80px" viewBox="0 0 80 80" version="1.1" xmlns="http://www.w3.org/2000/svg" xmlns:xlink="http://www.w3.org/1999/xlink">
    <!-- Generator: Sketch 51.3 (57544) - http://www.bohemiancoding.com/sketch -->
    <title>Group 5</title>
    <desc>Created with Sketch.</desc>
    <defs></defs>
    <g id="Page-1" stroke="none" stroke-width="1" fill="none" fill-rule="evenodd">
        <g id="Style-1-Copy-5" transform="translate(-880.000000, -827.000000)" fill-rule="nonzero">
            <g id="Group-5" transform="translate(880.000000, 827.000000)">
                <polygon id="Triangle-Copy-132" fill="#C927A5" opacity="0.830301339" transform="translate(20.000000, 60.000000) scale(-1, 1) translate(-20.000000, -60.000000) " points="-1.26750944e-14 80 -2.92502178e-15 40 40 40"></polygon>
                <polygon id="Triangle-Copy-133" fill="#C927A5" points="40 80 40 40 80 40"></polygon>
                <polygon id="Triangle-Copy-134" fill="#C927A5" opacity="0.772823661" transform="translate(60.000000, 20.000000) scale(-1, -1) translate(-60.000000, -20.000000) " points="40 40 40 -1.42108547e-14 80 -4.36635098e-15"></polygon>
                <polygon id="Triangle-Copy-135" fill="#C927A5" transform="translate(20.000000, 20.000000) scale(1, -1) translate(-20.000000, -20.000000) " points="-1.26750944e-14 40 -2.92502178e-15 -1.42108547e-14 40 -4.36635098e-15"></polygon>
                <polygon id="Triangle-Copy-138" fill="#C927A5" opacity="0.823214286" transform="translate(20.000000, 20.000000) scale(-1, 1) translate(-20.000000, -20.000000) " points="-1.26750944e-14 40 -2.92502178e-15 -1.42108547e-14 40 -4.36635098e-15"></polygon>
                <polygon id="Triangle-Copy-139" fill="#EEBAE2" points="40 16 24 0 40 0"></polygon>
                <polygon id="Triangle-Copy-142" fill="#FFFFFF" transform="translate(8.000000, 8.000000) scale(-1, 1) rotate(-270.000000) translate(-8.000000, -8.000000) " points="0 16 3.90002904e-15 0 16 3.9378015e-15"></polygon>
                <polygon id="Triangle-Copy-146" fill="#C927A5" opacity="0.823214286" points="40 40 40 -1.42108547e-14 80 -4.36635098e-15"></polygon>
                <polygon id="Triangle-Copy-147" fill="#EEBAE2" points="40 16 40 0 56 3.9378015e-15"></polygon>
                <polygon id="Triangle-Copy-148" fill="#FFFFFF" transform="translate(72.000000, 8.000000) rotate(-270.000000) translate(-72.000000, -8.000000) " points="64 16 64 0 80 3.9378015e-15"></polygon>
            </g>
        </g>
    </g>
</svg>