<?xml version="1.0" encoding="UTF-8"?>
<svg width="72px" height="72px" viewBox="0 0 72 72" version="1.1" xmlns="http://www.w3.org/2000/svg" xmlns:xlink="http://www.w3.org/1999/xlink">
    <!-- Generator: Sketch 52.2 (67145) - http://www.bohemiancoding.com/sketch -->
    <title>Group 5</title>
    <desc>Created with Sketch.</desc>
    <g id="Page-1" stroke="none" stroke-width="1" fill="none" fill-rule="evenodd">
        <g id="Style-1-Copy-5" transform="translate(-560.000000, -997.000000)" fill="#03CC79" fill-rule="nonzero">
            <g id="Group-5" transform="translate(560.000000, 997.000000)">
                <polygon id="Triangle-Copy-187" opacity="0.8" points="24 72 24 48 48 48"></polygon>
                <polygon id="Triangle-Copy-154" opacity="0.764787946" transform="translate(60.000000, 12.000000) scale(-1, 1) translate(-60.000000, -12.000000) " points="48 24 48 0 72 0"></polygon>
                <polygon id="Triangle-Copy-158" opacity="0.845368304" transform="translate(36.000000, 12.000000) scale(-1, 1) translate(-36.000000, -12.000000) " points="24 24 24 0 48 0"></polygon>
                <polygon id="Triangle-Copy-160" transform="translate(12.000000, 12.000000) scale(-1, 1) translate(-12.000000, -12.000000) " points="0 24 0 0 24 0"></polygon>
                <polygon id="Triangle-Copy-166" opacity="0.485770089" transform="translate(60.000000, 12.000000) scale(-1, 1) translate(-60.000000, -12.000000) " points="72 0 72 24 48 24"></polygon>
                <polygon id="Triangle-Copy-168" opacity="0.7" transform="translate(36.000000, 12.000000) scale(-1, 1) translate(-36.000000, -12.000000) " points="48 0 48 24 24 24"></polygon>
                <polygon id="Triangle-Copy-170" opacity="0.8" transform="translate(12.000000, 12.000000) scale(-1, 1) translate(-12.000000, -12.000000) " points="24 0 24 24 0 24"></polygon>
                <polygon id="Triangle-Copy-156" opacity="0.6" points="48 48 48 24 72 24"></polygon>
                <polygon id="Triangle-Copy-159" opacity="0.8" points="24 48 24 24 48 24"></polygon>
                <polygon id="Triangle-Copy-161" opacity="0.9" points="0 48 0 24 24 24"></polygon>
                <polygon id="Triangle-Copy-167" points="72 24 72 48 48 48"></polygon>
                <polygon id="Triangle-Copy-169" points="48 24 48 48 24 48"></polygon>
                <polygon id="Triangle-Copy-171" points="24 24 24 48 0 48"></polygon>
            </g>
        </g>
    </g>
</svg>